HIERARCHY
ROOT Hips
{
	OFFSET -21.947001 39.810204 44.525997
	CHANNELS 6 Xposition Yposition Zposition Zrotation Xrotation Yrotation
	JOINT Chest
	{
		OFFSET -0.201599 0.334099 6.453201
		CHANNELS 6 Xposition Yposition Zposition Zrotation Xrotation Yrotation
		JOINT Chest2
		{
			OFFSET 0.000000 0.000000 3.568001
			CHANNELS 6 Xposition Yposition Zposition Zrotation Xrotation Yrotation
			JOINT Neck
			{
				OFFSET 0.000000 0.000000 8.296402
				CHANNELS 6 Xposition Yposition Zposition Zrotation Xrotation Yrotation
				JOINT Head
				{
					OFFSET 0.000000 0.000000 2.173901
					CHANNELS 6 Xposition Yposition Zposition Zrotation Xrotation Yrotation
					End Site
					{
						OFFSET 0.000000 0.000000 7.891998
					}
				}
			}
			JOINT LeftCollar
			{
				OFFSET 1.927601 0.221401 6.049000
				CHANNELS 6 Xposition Yposition Zposition Zrotation Xrotation Yrotation
				JOINT LeftShoulder
				{
					OFFSET 4.959700 0.000000 0.000000
					CHANNELS 6 Xposition Yposition Zposition Zrotation Xrotation Yrotation
					JOINT LeftElbow
					{
						OFFSET 0.000000 0.000000 -8.654202
						CHANNELS 6 Xposition Yposition Zposition Zrotation Xrotation Yrotation
						JOINT LeftWrist
						{
							OFFSET 0.000000 0.000000 -13.864101
							CHANNELS 6 Xposition Yposition Zposition Zrotation Xrotation Yrotation
							End Site
							{
								OFFSET 0.000000 0.000000 -2.173901
							}
						}
					}
				}
			}
			JOINT RightCollar
			{
				OFFSET -3.155701 -0.764999 6.687801
				CHANNELS 6 Xposition Yposition Zposition Zrotation Xrotation Yrotation
				JOINT RightShoulder
				{
					OFFSET -3.592899 0.000000 0.000000
					CHANNELS 6 Xposition Yposition Zposition Zrotation Xrotation Yrotation
					JOINT RightElbow
					{
						OFFSET 0.000000 0.000000 -10.352398
						CHANNELS 6 Xposition Yposition Zposition Zrotation Xrotation Yrotation
						JOINT RightWrist
						{
							OFFSET 0.000000 0.000000 -12.750301
							CHANNELS 6 Xposition Yposition Zposition Zrotation Xrotation Yrotation
							End Site
							{
								OFFSET 0.000000 0.000000 -2.173901
							}
						}
					}
				}
			}
		}
	}
	JOINT LeftHip
	{
		OFFSET 2.460600 -0.518101 -2.735500
		CHANNELS 6 Xposition Yposition Zposition Zrotation Xrotation Yrotation
		JOINT LeftKnee
		{
			OFFSET 0.000000 -0.000004 -17.005899
			CHANNELS 6 Xposition Yposition Zposition Zrotation Xrotation Yrotation
			JOINT LeftAnkle
			{
				OFFSET 0.000000 0.000000 -19.194401
				CHANNELS 6 Xposition Yposition Zposition Zrotation Xrotation Yrotation
				End Site
				{
					OFFSET 0.000000 -8.134600 0.000000
				}
			}
		}
	}
	JOINT RightHip
	{
		OFFSET -3.115499 -0.679600 -2.320301
		CHANNELS 6 Xposition Yposition Zposition Zrotation Xrotation Yrotation
		JOINT RightKnee
		{
			OFFSET 0.000000 -0.000004 -17.680401
			CHANNELS 6 Xposition Yposition Zposition Zrotation Xrotation Yrotation
			JOINT RightAnkle
			{
				OFFSET 0.000000 0.000000 -16.993797
				CHANNELS 6 Xposition Yposition Zposition Zrotation Xrotation Yrotation
				End Site
				{
					OFFSET 0.000000 -8.842300 0.000000
				}
			}
		}
	}
}
MOTION
Frames: 6
Frame Time: 0.041667
-30.250000 28.957603 39.303192 59.671722 27.044569 -0.559469 -0.201598 0.334098 6.453203 -7.065143 19.159835 7.804653 -0.000001 0.000005 3.568002 0.233928 -10.064157 -1.208536 -0.000002 0.000012 8.296398 0.642916 26.325682 5.422991 -0.000000 -0.000004 2.173897 1.644527 3.273974 2.264225 1.927603 0.221406 6.048998 -23.152880 12.029699 1.006979 4.959700 0.000002 0.000009 -34.786065 0.616879 -116.507386 0.000004 0.000004 -8.654196 1.888146 -55.291737 22.861956 -0.000005 0.000001 -13.864103 192.346296 -138.580331 223.511971 -3.155701 -0.764993 6.687797 39.794704 15.382593 1.045648 -3.592902 -0.000003 0.000013 36.273796 6.111007 110.062590 -0.000000 -0.000003 -10.352396 -126.826409 -138.525566 -143.308379 0.000004 -0.000002 -12.750303 -246.869674 -5.330078 50.499209 2.460601 -0.518109 -2.735507 73.864712 -36.475273 55.574575 -0.000009 -0.000004 -17.005896 -119.374850 34.279992 58.127779 -0.000007 0.000003 -19.194401 49.397420 10.684223 22.164164 -3.115495 -0.679598 -2.320310 -62.347920 -49.328750 -52.936787 -0.000007 -0.000010 -17.680401 133.379360 8.878332 -65.598571 0.000006 0.000000 -16.993795 -78.816626 18.427318 -43.132067
-30.061403 28.884205 39.649593 58.973329 25.874365 -0.417689 -0.201600 0.334100 6.453197 -6.974948 18.806359 8.020515 0.000002 0.000002 3.568000 0.236540 -9.988756 -1.203647 -0.000001 0.000004 8.296402 0.924534 27.099395 5.263810 -0.000002 0.000005 2.173896 1.762433 3.637383 1.955200 1.927599 0.221406 6.048999 -22.790137 11.954060 0.291399 4.959703 -0.000009 0.000001 -33.554892 0.532245 -118.040846 -0.000005 0.000000 -8.654197 4.566259 -55.797721 24.331502 -0.000000 -0.000005 -13.864096 194.943926 -138.056414 225.517519 -3.155705 -0.764997 6.687802 39.653148 14.966657 1.246957 -3.592899 -0.000001 0.000002 35.522185 6.423734 111.563716 -0.000004 -0.000010 -10.352398 -129.916154 -139.188860 -145.249491 0.000002 -0.000005 -12.750298 -247.328608 6.730905 65.295960 2.460600 -0.518098 -2.735508 70.430459 -37.042605 51.634492 -0.000005 0.000000 -17.005901 -114.613402 35.985292 55.510716 -0.000007 -0.000005 -19.194401 48.141786 10.910999 20.293484 -3.115499 -0.679593 -2.320306 -58.276492 -48.904950 -48.863078 -0.000006 -0.000006 -17.680401 132.332374 9.325272 -64.314120 -0.000003 -0.000005 -16.993797 -78.469769 18.137777 -43.585742
-29.865200 28.794506 40.004192 58.331503 24.713660 -0.312762 -0.201600 0.334099 6.453198 -7.175112 18.345869 8.277813 -0.000001 0.000001 3.568002 0.453682 -9.960696 -1.185560 -0.000007 0.000006 8.296390 0.937007 27.883525 5.473949 -0.000003 -0.000003 2.173902 2.119051 3.907908 1.835821 1.927598 0.221407 6.048994 -22.658413 11.915518 -0.384300 4.959701 -0.000002 0.000008 -31.996564 0.569347 -119.455528 -0.000003 0.000003 -8.654201 7.613773 -56.126588 25.928347 -0.000002 -0.000000 -13.864094 197.777676 -137.985968 227.868129 -3.155707 -0.764997 6.687796 38.562408 14.473046 1.584183 -3.592907 -0.000006 0.000008 35.472820 7.081315 113.009250 -0.000008 -0.000009 -10.352390 -129.820886 -138.169905 -143.713887 -0.000004 -0.000002 -12.750299 -249.028697 6.586952 66.140321 2.460598 -0.518105 -2.735505 66.790876 -37.414916 47.584562 -0.000002 -0.000007 -17.005894 -109.857384 37.191787 52.802212 -0.000002 0.000004 -19.194401 47.121711 11.155191 18.920976 -3.115496 -0.679598 -2.320301 -54.117515 -48.315221 -44.741701 -0.000007 -0.000007 -17.680401 130.739916 10.206452 -62.940781 0.000006 -0.000004 -16.993793 -77.899837 18.046234 -43.331239
-29.660702 28.700108 40.353699 57.706800 23.673413 -0.233616 -0.201602 0.334098 6.453204 -7.268989 17.749343 8.550247 0.000001 0.000007 3.567995 0.534909 -9.962632 -1.178207 -0.000003 0.000001 8.296394 1.422984 28.733148 5.146364 -0.000004 -0.000000 2.173906 2.197071 4.231903 1.820014 1.927599 0.221399 6.049000 -22.710560 12.124753 -0.974225 4.959705 -0.000003 0.000009 -29.981368 0.564751 -120.986761 -0.000001 0.000000 -8.654198 11.786522 -56.081720 28.210840 0.000005 -0.000001 -13.864099 199.475811 -137.791553 229.858433 -3.155708 -0.764999 6.687799 39.058157 14.420922 0.831394 -3.592895 -0.000009 0.000009 33.769541 7.765050 115.322225 -0.000010 -0.000006 -10.352398 -130.394076 -137.208624 -142.812644 0.000002 -0.000005 -12.750303 -250.597619 6.795431 67.160437 2.460594 -0.518107 -2.735501 62.731155 -37.753690 43.345890 -0.000004 -0.000003 -17.005903 -104.688386 37.865391 49.820496 -0.000005 0.000005 -19.194399 46.359844 11.574897 17.786298 -3.115499 -0.679601 -2.320301 -50.523288 -47.483263 -41.157074 -0.000002 -0.000004 -17.680401 129.474131 10.985122 -61.545632 0.000009 -0.000004 -16.993795 -77.311683 17.990382 -43.261513
-29.446199 28.598007 40.707195 57.125168 22.618578 -0.175140 -0.201600 0.334094 6.453201 -6.767043 17.213873 8.409892 0.000003 -0.000001 3.568002 0.341042 -9.636856 -1.126418 -0.000004 0.000008 8.296400 1.532873 29.231120 5.245501 -0.000003 0.000003 2.173907 2.233455 4.293135 1.932923 1.927600 0.221406 6.049003 -22.134292 11.767671 -2.491079 4.959701 -0.000004 0.000001 -28.440206 0.790972 -121.480857 -0.000008 -0.000002 -8.654204 13.061547 -57.079263 27.297105 0.000000 0.000005 -13.864092 203.309255 -137.755148 231.899348 -3.155704 -0.764996 6.687804 39.752346 14.011756 2.028022 -3.592899 -0.000010 0.000013 31.836738 7.735144 115.971421 -0.000010 -0.000004 -10.352401 -130.952184 -136.495334 -141.905964 -0.000001 -0.000001 -12.750299 -252.197413 7.033769 67.900065 2.460597 -0.518103 -2.735502 58.624921 -37.788927 39.186394 0.000000 0.000002 -17.005899 -96.445775 40.578249 45.303938 -0.000003 0.000001 -19.194401 42.518720 11.845610 16.156450 -3.115494 -0.679598 -2.320304 -46.880885 -46.488399 -37.553517 -0.000005 -0.000006 -17.680401 127.877288 12.012092 -60.015568 0.000004 0.000001 -16.993793 -76.544619 18.002418 -43.062321
-29.217602 28.491405 41.054993 56.388450 21.506295 -0.083892 -0.201606 0.334102 6.453199 -6.830351 16.690187 8.360768 -0.000000 -0.000005 3.568000 0.626539 -9.613154 -1.085143 -0.000004 0.000008 8.296399 1.821594 29.884379 5.497558 0.000001 -0.000001 2.173903 2.325305 4.276900 1.891440 1.927603 0.221407 6.049000 -22.231673 11.477012 -2.216392 4.959706 -0.000003 0.000003 -27.075625 0.957140 -123.424496 0.000003 0.000003 -8.654201 15.208979 -57.026018 28.392128 0.000005 -0.000007 -13.864096 205.912513 -137.995093 233.853711 -3.155706 -0.764996 6.687802 40.209822 14.464947 2.021591 -3.592898 0.000004 0.000009 30.214561 7.717587 118.061486 -0.000009 -0.000001 -10.352396 -131.426432 -136.045880 -141.140327 -0.000001 -0.000012 -12.750298 -253.922528 7.292520 68.697360 2.460593 -0.518094 -2.735503 54.305864 -37.576135 34.849616 -0.000002 -0.000001 -17.005901 -91.815774 40.119602 42.688320 -0.000001 -0.000001 -19.194401 42.849649 12.285540 15.126209 -3.115503 -0.679591 -2.320297 -43.152350 -45.333212 -34.029423 -0.000005 -0.000007 -17.680405 126.164959 12.989018 -58.412543 0.000004 0.000001 -16.993793 -75.773907 18.128377 -42.787409
